<svg xmlns="http://www.w3.org/2000/svg" viewBox="0 0 477.3 264.1"><title>OJ103614615</title><g id="Shapes"><path id="path34" d="M122,215.7c0-10.2,14.2-18.5,31.6-18.5s31.6,8.3,31.6,18.5-14.1,18.5-31.6,18.5S122,226,122,215.7" fill="none" stroke="#000" stroke-linecap="round" stroke-linejoin="round" stroke-width="0.67"/><path id="path48" d="M262.5,57.9c0-14.5,17-26.3,38.1-26.3s38.1,11.8,38.1,26.3-17,26.3-38.1,26.3-38.1-11.8-38.1-26.3" fill="none" stroke="#000" stroke-linecap="round" stroke-linejoin="round" stroke-width="0.67"/><path id="path64" d="M384.4,234.2c0-10.6,16.6-19.3,37-19.3s37,8.6,37,19.3-16.6,19.3-37,19.3-37-8.6-37-19.3" fill="none" stroke="#000" stroke-linecap="round" stroke-linejoin="round" stroke-width="0.67"/><path id="path78" d="M13,45.6c0-11.1,13.1-20.2,29.2-20.2s29.2,9,29.2,20.2S58.3,65.8,42.2,65.8,13,56.7,13,45.6" fill="none" stroke="#000" stroke-linecap="round" stroke-linejoin="round" stroke-width="0.67"/><path id="path92" d="M382.7,33.4c0-11.3,18.8-20.5,42-20.5s42,9.2,42,20.5-18.8,20.5-42,20.5-42-9.2-42-20.5" fill="none" stroke="#000" stroke-linecap="round" stroke-linejoin="round" stroke-width="0.67"/><path id="path108" d="M2,176.7c0-11.1,13-20.2,29.1-20.2s29.1,9,29.1,20.2-13,20.2-29.1,20.2S2,187.8,2,176.7" fill="none" stroke="#000" stroke-linecap="round" stroke-linejoin="round" stroke-width="0.67"/><path id="path122" d="M290.1,141.8c0-9.9,15.6-18,34.9-18s34.9,8,34.9,18-15.6,18-34.9,18-34.9-8-34.9-18" fill="none" stroke="#000" stroke-linecap="round" stroke-linejoin="round" stroke-width="0.67"/><path id="path150" d="M399.7,106.9c0-12.6,13-22.8,28.9-22.8s28.9,10.2,28.9,22.8-12.9,22.8-28.9,22.8-28.9-10.2-28.9-22.8" fill="none" stroke="#000" stroke-linecap="round" stroke-linejoin="round" stroke-width="0.67"/><path id="path166" d="M252,244.8c0-10.5,16-19,35.8-19s35.8,8.5,35.8,19-16,19-35.8,19-35.8-8.5-35.8-19" fill="none" stroke="#000" stroke-linecap="round" stroke-linejoin="round" stroke-width="0.67"/><path id="path175" d="M88.3,34.1c0-11.7,18.2-21.2,40.6-21.2s40.7,9.5,40.7,21.2-18.2,21.2-40.7,21.2S88.3,45.8,88.3,34.1" fill="none" stroke="#000" stroke-linecap="round" stroke-linejoin="round" stroke-width="0.67"/><g id="shape52-83"><path id="path198" d="M178.19,142.89l-24.3,54.5" fill="none" stroke="#000" stroke-linecap="round" stroke-linejoin="round" stroke-width="0.33"/></g><g id="shape58-89"><path id="path208" d="M416.08,214l-84.7-140.6" fill="none" stroke="#000" stroke-linecap="round" stroke-linejoin="round" stroke-width="0.33"/></g><path id="path220" d="M8,242.6c0-11,16.6-20,37.2-20s37.2,9,37.2,20-16.6,20-37.2,20S8,253.7,8,242.6" fill="none" stroke="#000" stroke-linecap="round" stroke-linejoin="round" stroke-width="0.67"/><g id="shape63-98"><path id="path227" d="M232.09,98.07,267,73" fill="none" stroke="#000" stroke-linecap="round" stroke-linejoin="round" stroke-width="0.33"/></g><g id="shape65-101"><path id="path232" d="M337.27,64l62.4,43.1" fill="none" stroke="#000" stroke-linecap="round" stroke-linejoin="round" stroke-width="0.33"/></g><g id="shape67-104"><path id="path237" d="M328.08,38.92l54.8-8" fill="none" stroke="#000" stroke-linecap="round" stroke-linejoin="round" stroke-width="0.33"/></g><g id="shape70-107"><path id="path242" d="M77.79,98.36l86.3,23" fill="none" stroke="#000" stroke-linecap="round" stroke-linejoin="round" stroke-width="0.33"/></g><g id="shape73-110"><path id="path247" d="M69.1,112.66l62.3,90.2" fill="none" stroke="#000" stroke-linecap="round" stroke-linejoin="round" stroke-width="0.33"/></g><g id="shape76-113"><path id="path252" d="M176.06,228.86,252,245" fill="none" stroke="#000" stroke-linecap="round" stroke-linejoin="round" stroke-width="0.33"/></g><g id="shape77-116"><path id="path257" d="M212.33,150.4l55.9,78.5" fill="none" stroke="#000" stroke-linecap="round" stroke-linejoin="round" stroke-width="0.33"/></g><g id="shape78-119"><path id="path262" d="M290.28,141.38l-46.5-20" fill="none" stroke="#000" stroke-linecap="round" stroke-linejoin="round" stroke-width="0.33"/></g><g id="shape79-122"><path id="path267" d="M122.32,216l-61-28.6" fill="none" stroke="#000" stroke-linecap="round" stroke-linejoin="round" stroke-width="0.33"/></g><g id="shape80-125"><path id="path272" d="M131.39,228.89l-49,13.7" fill="none" stroke="#000" stroke-linecap="round" stroke-linejoin="round" stroke-width="0.33"/></g><g id="shape81-128"><path id="path277" d="M175.8,98,67.9,56" fill="none" stroke="#000" stroke-linecap="round" stroke-linejoin="round" stroke-width="0.33"/></g><g id="shape82-131"><path id="path282" d="M304.61,84.14l4.7,40" fill="none" stroke="#000" stroke-linecap="round" stroke-linejoin="round" stroke-width="0.33"/></g><g id="shape94-134"><path id="path287" d="M303.16,109.49h-.3v-1.3c0-.1.1,0,.1,0h.2v.1l.1,1.1h0c0,.1,0,.1-.1.1Z" fill="#fff"/></g><g id="shape96-136"><path id="path292" d="M265.08,29.46,274,38" fill="none" stroke="#000" stroke-linecap="round" stroke-linejoin="round" stroke-width="0.33"/></g><g id="shape97-139"><path id="path297" d="M169.77,37.55l92.3,16.1" fill="none" stroke="#000" stroke-linecap="round" stroke-linejoin="round" stroke-width="0.33"/></g><path id="path78-2" data-name="path78" d="M1.67,98.2c0-11.1,17-20.2,38-20.2s38,9,38,20.2-17,20.2-38,20.2-38-9.1-38-20.2" fill="none" stroke="#000" stroke-linecap="round" stroke-linejoin="round" stroke-width="0.76"/><path id="path175-2" data-name="path175" d="M184,20.05c0-9.27,20-16.95,44.65-16.95s44.65,7.57,44.65,17-20,17-44.65,17S184,29.43,184,20.05" fill="none" stroke="#000" stroke-linecap="round" stroke-linejoin="round" stroke-width="0.74"/><path id="path78-3" data-name="path78" d="M164.8,120.4c0-16.5,17.5-30,38.9-30,21.6,0,38.9,13.4,38.9,30s-17.5,30-38.9,30c-21.4-.2-38.9-13.5-38.9-30" fill="none" stroke="#000" stroke-linecap="round" stroke-linejoin="round" stroke-width="0.67"/></g><g id="Text"><text transform="translate(15.51 47.4)" font-size="10" font-family="SegoePrint, Segoe Print">Devoluções</text><text transform="translate(3.44 101.2)" font-size="11" font-family="SegoePrint, Segoe Print">Faturamento</text><text transform="translate(7.3 179.4)" font-size="9" font-family="SegoePrint, Segoe Print">Fidelidade</text><text transform="translate(137.35 219.3)" font-size="9" font-family="SegoePrint, Segoe Print"><tspan letter-spacing="-0.02em">C</tspan><tspan x="6.12" y="0">ontas</tspan></text><text transform="translate(263.88 248.3)" font-size="9" font-family="SegoePrint, Segoe Print"><tspan letter-spacing="-0.02em">C</tspan><tspan x="6.12" y="0">all center</tspan></text><text transform="translate(306.18 144.73)" font-size="9" font-family="SegoePrint, Segoe Print"><tspan letter-spacing="-0.06em">T</tspan><tspan x="5.52" y="0">erceiro</tspan></text><text transform="translate(186.45 20.85)" font-size="9" font-family="SegoePrint, Segoe Print"><tspan letter-spacing="-0.02em">C</tspan><tspan x="6.12" y="0">ompa</tspan><tspan x="31.56" y="0" letter-spacing="0.04em">r</tspan><tspan x="36.54" y="0">tilhamento</tspan><tspan x="22.57" y="10.8">do drone</tspan></text><text transform="translate(17.64 240.2)" font-size="9" font-family="SegoePrint, Segoe Print">Classificação<tspan x="3.28" y="10.8">do Usuá</tspan><tspan x="39.48" y="10.8" letter-spacing="0.01em">r</tspan><tspan x="44.15" y="10.8">io</tspan></text><text transform="translate(387.06 236.6)" font-size="9" font-family="SegoePrint, Segoe Print"><tspan letter-spacing="0.01em">A</tspan><tspan x="7.08" y="0">nálise de E</tspan><tspan x="56" y="0" letter-spacing="-0.04em">T</tspan><tspan x="61.69" y="0">A</tspan></text><text transform="translate(169.51 125.3)" font-size="11" font-family="SegoePrint, Segoe Print">Ende<tspan x="27.81" y="0" letter-spacing="0em">r</tspan><tspan x="33.47" y="0">eço de</tspan></text><text transform="translate(106.35 32.08)" font-size="9" font-family="SegoePrint, Segoe Print">Vigilância <tspan x="-1.32" y="10.8">com vídeo</tspan></text><text transform="translate(266.09 57.38)" font-size="9" font-family="SegoePrint, Segoe Print">Ge<tspan x="11.66" y="0" letter-spacing="0em">r</tspan><tspan x="16.29" y="0">enciamento </tspan><tspan x="13.84" y="10.8">do drone</tspan></text><text transform="translate(408.4 29.53)" font-size="9" font-family="SegoePrint, Segoe Print"><tspan letter-spacing="0.01em">A</tspan><tspan x="7.08" y="0">nálise </tspan><tspan x="-4.34" y="10.8">p</tspan><tspan x="1.48" y="10.8" letter-spacing="0em">r</tspan><tspan x="6.1" y="10.8">editiva</tspan></text><text transform="translate(411.33 105.48)" font-size="9" font-family="SegoePrint, Segoe Print">Reparos <tspan x="-3.14" y="10.8">do Drone</tspan></text></g></svg>